{
    "asset" : {
        "generator" : "Khronos glTF Blender I/O v3.4.50",
        "version" : "2.0"
    },
    "scene" : 0,
    "scenes" : [
        {
            "name" : "Scene",
            "nodes" : [
                0
            ]
        }
    ],
    "nodes" : [
        {
            "mesh" : 0,
            "name" : "laptop"
        }
    ],
    "materials" : [
        {
            "doubleSided" : true,
            "name" : "Material.010",
            "pbrMetallicRoughness" : {
                "baseColorFactor" : [
                    0.12781618535518646,
                    0.17696444690227509,
                    0.23300759494304657,
                    1
                ],
                "metallicFactor" : 0,
                "roughnessFactor" : 0.29230767488479614
            }
        },
        {
            "doubleSided" : true,
            "name" : "Material.011",
            "pbrMetallicRoughness" : {
                "baseColorFactor" : [
                    0.6500106453895569,
                    0.25860217213630676,
                    0.17035852372646332,
                    1
                ],
                "metallicFactor" : 0,
                "roughnessFactor" : 0.3692307472229004
            }
        }
    ],
    "meshes" : [
        {
            "name" : "Cube.001",
            "primitives" : [
                {
                    "attributes" : {
                        "POSITION" : 0,
                        "TEXCOORD_0" : 1,
                        "NORMAL" : 2
                    },
                    "indices" : 3,
                    "material" : 0
                },
                {
                    "attributes" : {
                        "POSITION" : 4,
                        "TEXCOORD_0" : 5,
                        "NORMAL" : 6
                    },
                    "indices" : 7,
                    "material" : 1
                }
            ]
        }
    ],
    "accessors" : [
        {
            "bufferView" : 0,
            "componentType" : 5126,
            "count" : 2234,
            "max" : [
                1.3822965621948242,
                1.937402606010437,
                1.6072883605957031
            ],
            "min" : [
                -1.4242594242095947,
                -0.4961453080177307,
                -1.60728919506073
            ],
            "type" : "VEC3"
        },
        {
            "bufferView" : 1,
            "componentType" : 5126,
            "count" : 2234,
            "type" : "VEC2"
        },
        {
            "bufferView" : 2,
            "componentType" : 5126,
            "count" : 2234,
            "type" : "VEC3"
        },
        {
            "bufferView" : 3,
            "componentType" : 5123,
            "count" : 13056,
            "type" : "SCALAR"
        },
        {
            "bufferView" : 4,
            "componentType" : 5126,
            "count" : 17617,
            "max" : [
                0.6563765406608582,
                1.7086960077285767,
                1.3071527481079102
            ],
            "min" : [
                -1.0392489433288574,
                -0.13790179789066315,
                -1.307152509689331
            ],
            "type" : "VEC3"
        },
        {
            "bufferView" : 5,
            "componentType" : 5126,
            "count" : 17617,
            "type" : "VEC2"
        },
        {
            "bufferView" : 6,
            "componentType" : 5126,
            "count" : 17617,
            "type" : "VEC3"
        },
        {
            "bufferView" : 7,
            "componentType" : 5123,
            "count" : 95394,
            "type" : "SCALAR"
        }
    ],
    "bufferViews" : [
        {
            "buffer" : 0,
            "byteLength" : 26808,
            "byteOffset" : 0,
            "target" : 34962
        },
        {
            "buffer" : 0,
            "byteLength" : 17872,
            "byteOffset" : 26808,
            "target" : 34962
        },
        {
            "buffer" : 0,
            "byteLength" : 26808,
            "byteOffset" : 44680,
            "target" : 34962
        },
        {
            "buffer" : 0,
            "byteLength" : 26112,
            "byteOffset" : 71488,
            "target" : 34963
        },
        {
            "buffer" : 0,
            "byteLength" : 211404,
            "byteOffset" : 97600,
            "target" : 34962
        },
        {
            "buffer" : 0,
            "byteLength" : 140936,
            "byteOffset" : 309004,
            "target" : 34962
        },
        {
            "buffer" : 0,
            "byteLength" : 211404,
            "byteOffset" : 449940,
            "target" : 34962
        },
        {
            "buffer" : 0,
            "byteLength" : 190788,
            "byteOffset" : 661344,
            "target" : 34963
        }
    ],
    "buffers" : [
        {
            "byteLength" : 852132,
            "uri" : "data:application/octet-stream;base64,"
        }
    ]
}
